<?xml version="1.0" encoding="UTF-8"?>
<svg version="1.1" xmlns="http://www.w3.org/2000/svg" width="500" height="500">
<path d="M0 0 C165 0 330 0 500 0 C500 165 500 330 500 500 C335 500 170 500 0 500 C0 335 0 170 0 0 Z " fill="#FEFEFE" transform="translate(0,0)"/>
<path d="M0 0 C1.47635034 -0.00202436 2.95269969 -0.00493881 4.42904663 -0.00869751 C7.5104126 -0.01310109 10.59151627 -0.00675191 13.67285156 0.00732422 C17.61144611 0.02444544 21.54942855 0.01454435 25.48800087 -0.00339317 C28.53187636 -0.0142588 31.57560782 -0.01077252 34.61948776 -0.0030098 C36.07147673 -0.00101702 37.52347903 -0.00343449 38.97545242 -0.01044846 C41.00658144 -0.01811135 43.0377567 -0.00435087 45.06884766 0.01025391 C46.22164215 0.01264069 47.37443665 0.01502747 48.56216431 0.01748657 C52.89946144 0.53201688 56.38102411 1.90512458 59.390625 5.1328125 C71.7734375 24.97607725 71.7734375 24.97607725 71.7734375 29.3984375 C72.49789062 29.36363281 73.22234375 29.32882813 73.96875 29.29296875 C84.09880271 29.00932727 84.09880271 29.00932727 88.7734375 32.3984375 C92.10657854 36.6526761 92.17211711 40.56180993 92.06640625 45.76171875 C92.06216141 46.55370163 92.05791656 47.34568451 92.05354309 48.16166687 C92.03681913 50.67844377 91.99917975 53.19440474 91.9609375 55.7109375 C91.94588249 57.42251443 91.93219551 59.13410399 91.91992188 60.84570312 C91.88949428 65.03051122 91.8307645 69.21356665 91.7734375 73.3984375 C85.5034375 73.3984375 79.2334375 73.3984375 72.7734375 73.3984375 C71.7834375 75.3784375 71.7834375 75.3784375 70.7734375 77.3984375 C67.25282656 81.28963907 64.48406588 84.04630149 59.1875 84.734375 C53.16958104 84.81865958 49.42842064 84.61008891 44.7734375 80.3984375 C44.04610916 79.3753952 43.31878082 78.35235291 42.56941223 77.29830933 C40.40456537 74.68554234 39.89808916 74.42619562 36.36283875 73.63894653 C35.05933975 73.63450531 33.75584076 73.63006409 32.4128418 73.62548828 C31.69034744 73.61485855 30.96785309 73.60422882 30.22346497 73.59327698 C27.84748118 73.56528545 25.47372859 73.57926695 23.09765625 73.59375 C21.44568446 73.58249681 19.79372865 73.56861482 18.14179993 73.55221558 C13.80317872 73.51618858 9.46526233 73.5158025 5.12652588 73.52288818 C0.69555058 73.52380131 -3.73516088 73.49093962 -8.16601562 73.4609375 C-16.85296162 73.40708573 -25.53945389 73.39089209 -34.2265625 73.3984375 C-34.50886719 74.17832031 -34.79117188 74.95820313 -35.08203125 75.76171875 C-36.83601461 79.80246539 -39.70788038 81.55472521 -43.4765625 83.6484375 C-48.85363341 85.11491138 -54.01738289 85.37836731 -59.0390625 82.7109375 C-62.09970932 80.49046824 -64.15504393 78.54714572 -66.2265625 75.3984375 C-66.2265625 74.7384375 -66.2265625 74.0784375 -66.2265625 73.3984375 C-74.8065625 73.3984375 -83.3865625 73.3984375 -92.2265625 73.3984375 C-92.3090625 69.3971875 -92.3915625 65.3959375 -92.4765625 61.2734375 C-92.51297852 60.02288574 -92.54939453 58.77233398 -92.58691406 57.48388672 C-92.63358752 52.81127159 -92.55521365 49.20239596 -90.7734375 44.84375 C-84.29554895 38.62418216 -74.98765508 37.05925134 -66.5390625 34.8359375 C-64.3460866 34.2572177 -62.15461677 33.67275457 -59.96484375 33.08203125 C-58.52685425 32.70389282 -58.52685425 32.70389282 -57.05981445 32.31811523 C-50.91146347 30.3223515 -46.84285048 27.41070148 -42.453125 22.7421875 C-41.3700531 21.62604833 -40.28671138 20.51017095 -39.203125 19.39453125 C-37.52457889 17.6478034 -35.85039017 15.89720381 -34.18164062 14.14111328 C-32.55410375 12.43449996 -30.9109581 10.74412528 -29.265625 9.0546875 C-28.53552719 8.27176331 -28.53552719 8.27176331 -27.79067993 7.47302246 C-19.89842255 -0.58446671 -10.56890529 -0.05121958 0 0 Z " fill="#0E0E0E" transform="translate(250.2265625,213.6015625)"/>
<path d="M0 0 C0.76539093 -0.01022186 1.53078186 -0.02044373 2.31936646 -0.03097534 C4.82537968 -0.05855675 7.33027973 -0.05687051 9.83642578 -0.05224609 C11.59465943 -0.06003194 13.35288935 -0.06870372 15.1111145 -0.07821655 C18.7877423 -0.09309577 22.46398584 -0.09259207 26.140625 -0.08203125 C30.83030026 -0.0704498 35.51839361 -0.10430159 40.20780754 -0.1507206 C43.83693489 -0.18032164 47.46568678 -0.18192183 51.09491348 -0.17570114 C52.82273617 -0.17672136 54.55058161 -0.18707946 56.27828598 -0.20732498 C66.03147891 -0.30759788 74.12994138 -0.14878494 81.90673828 6.54931641 C84.16064453 8.96337891 84.16064453 8.96337891 85.46923828 11.17431641 C85.92427734 11.90908203 86.37931641 12.64384766 86.84814453 13.40087891 C89.04351475 17.85642731 89.09318369 22.19839376 89.14501953 27.09619141 C89.15309128 27.82622375 89.16116302 28.5562561 89.16947937 29.30841064 C89.18328156 30.85157932 89.19402093 32.39477802 89.2019043 33.93798828 C89.21340839 35.50513753 89.23383559 37.07224809 89.26342773 38.63916016 C89.5654585 54.64847803 89.5654585 54.64847803 84.90673828 61.54931641 C84.34986328 62.43619141 83.79298828 63.32306641 83.21923828 64.23681641 C77.3203945 70.13566019 70.5209472 72.61161285 62.29101562 72.61181641 C60.44154951 72.59279248 58.59210255 72.57184278 56.74267578 72.54931641 C54.71272778 72.54815751 52.68277703 72.54954134 50.65283203 72.55322266 C47.47252538 72.55762819 44.29516205 72.54953375 41.11523438 72.49804688 C26.60001118 71.89805618 26.60001118 71.89805618 14.07080078 78.11181641 C12.67200386 79.58079667 11.2804687 81.05686855 9.90673828 82.54931641 C9.24673828 82.54931641 8.58673828 82.54931641 7.90673828 82.54931641 C7.90673828 79.24931641 7.90673828 75.94931641 7.90673828 72.54931641 C7.08431641 72.59572266 6.26189453 72.64212891 5.41455078 72.68994141 C-4.65671348 73.0155712 -11.98255876 71.77111114 -19.53076172 64.79931641 C-25.90433549 58.46566063 -26.44599281 51.21018015 -26.5070343 42.69012451 C-26.50460327 41.22210986 -26.49696584 39.75409548 -26.484375 38.28613281 C-26.4682971 36.05422845 -26.48427521 33.82413433 -26.50341797 31.59228516 C-26.51662513 23.40933552 -26.47477125 16.30911211 -21.55029297 9.37744141 C-21.00759766 8.85666016 -20.46490234 8.33587891 -19.90576172 7.79931641 C-19.11105469 7.00267578 -19.11105469 7.00267578 -18.30029297 6.18994141 C-12.54173819 1.90924582 -7.23224992 -0.05093134 0 0 Z " fill="#FAFAFA" transform="translate(259.09326171875,130.45068359375)"/>
<path d="M0 0 C1.42059884 0.00560812 2.84120355 0.00987246 4.2618103 0.01286316 C7.96739241 0.02421644 11.67261133 0.05359907 15.37805176 0.0869751 C19.84186805 0.12333556 24.30580704 0.13688259 28.76972961 0.15433502 C35.52121673 0.18324433 42.2719099 0.2407961 49.0234375 0.29296875 C49.0234375 10.85296875 49.0234375 21.41296875 49.0234375 32.29296875 C33.5134375 32.29296875 18.0034375 32.29296875 2.0234375 32.29296875 C1.3634375 29.65296875 0.7034375 27.01296875 0.0234375 24.29296875 C-2.37664112 19.90661816 -4.50471299 17.5288935 -8.9765625 15.29296875 C-9.6365625 14.96296875 -10.2965625 14.63296875 -10.9765625 14.29296875 C-16.93358195 13.73583743 -21.92864649 13.77116689 -26.9765625 17.29296875 C-31.84383772 21.93900419 -32.87784899 25.70068771 -33.9765625 32.29296875 C-39.9165625 32.29296875 -45.8565625 32.29296875 -51.9765625 32.29296875 C-52.1003125 27.96171875 -52.1003125 27.96171875 -52.2265625 23.54296875 C-52.26297852 22.6396582 -52.29939453 21.73634766 -52.33691406 20.80566406 C-52.3469043 20.08475586 -52.35689453 19.36384766 -52.3671875 18.62109375 C-52.3986084 17.5213623 -52.3986084 17.5213623 -52.43066406 16.39941406 C-51.77463816 13.35630038 -50.37537845 12.22147371 -47.9765625 10.29296875 C-45.56982422 9.24389648 -45.56982422 9.24389648 -42.90625 8.4765625 C-41.9265625 8.18716797 -40.946875 7.89777344 -39.9375 7.59960938 C-38.91914063 7.31279297 -37.90078125 7.02597656 -36.8515625 6.73046875 C-35.35882813 6.29444336 -35.35882813 6.29444336 -33.8359375 5.84960938 C-31.94556226 5.29804428 -30.05365104 4.7516926 -28.15966797 4.21264648 C-26.39444232 3.70262922 -24.63413065 3.16657925 -22.91036987 2.53034973 C-15.29995982 -0.12276893 -7.98342659 -0.09356355 0 0 Z " fill="#FBFBFB" transform="translate(215.9765625,248.70703125)"/>
<path d="M0 0 C16.83 0 33.66 0 51 0 C51 5.28 51 10.56 51 16 C48.69 15.34 46.38 14.68 44 14 C39.0076801 13.3695455 35.16906839 13.4154658 30.625 15.6875 C25.52755819 20.1781035 23.56772713 23.48684874 22.39453125 30.109375 C22 32 22 32 21 33 C19.43827255 33.08685603 17.87270656 33.10702219 16.30859375 33.09765625 C15.03326782 33.09390991 15.03326782 33.09390991 13.73217773 33.09008789 C12.64493408 33.08098389 11.55769043 33.07187988 10.4375 33.0625 C6.993125 33.041875 3.54875 33.02125 0 33 C0 22.11 0 11.22 0 0 Z " fill="#F6F6F6" transform="translate(267,249)"/>
<path d="M0 0 C1.30388672 0.01353516 2.60777344 0.02707031 3.95117188 0.04101562 C7.15512654 0.07622392 10.35886739 0.13002619 13.5625 0.1875 C13.5625 8.1075 13.5625 16.0275 13.5625 24.1875 C-4.5875 24.1875 -22.7375 24.1875 -41.4375 24.1875 C-37.21405571 19.26014833 -33.03423121 14.54655351 -28.5 9.9375 C-27.91798828 9.32648438 -27.33597656 8.71546875 -26.73632812 8.0859375 C-18.46319633 -0.30629807 -11.43637357 -0.22514819 0 0 Z " fill="#FEFEFE" transform="translate(251.4375,218.8125)"/>
<path d="M0 0 C0.78955078 -0.01224609 1.57910156 -0.02449219 2.39257812 -0.03710938 C4.45057435 -0.04237279 6.50812009 0.06543715 8.5625 0.1875 C9.2225 0.8475 9.8825 1.5075 10.5625 2.1875 C12.45043906 1.83671172 12.45043906 1.83671172 14.5625 1.1875 C18.20522446 0.94234877 21.84983605 0.95644959 25.5 0.9375 C26.48935547 0.916875 27.47871094 0.89625 28.49804688 0.875 C37.82699075 0.82481066 37.82699075 0.82481066 41.5625 4.1875 C44.5625 9.1875 44.5625 9.1875 44.5625 21.1875 C32.0225 21.1875 19.4825 21.1875 6.5625 21.1875 C6.2325 18.8775 5.9025 16.5675 5.5625 14.1875 C5.2325 14.8475 4.9025 15.5075 4.5625 16.1875 C-1.7075 16.1875 -7.9775 16.1875 -14.4375 16.1875 C-15.05264196 6.96037066 -15.05264196 6.96037066 -12 3.125 C-11.154375 2.485625 -10.30875 1.84625 -9.4375 1.1875 C-7.33618615 -0.91381385 -2.89603678 0.00235259 0 0 Z " fill="#F2F2F2" transform="translate(264.4375,166.8125)"/>
<path d="M0 0 C4.60872083 -0.06901579 9.2156363 -0.12870199 13.82446289 -0.16479492 C15.39093107 -0.17984622 16.95735736 -0.20029207 18.52368164 -0.22631836 C20.78021606 -0.26286433 23.03619153 -0.27976261 25.29296875 -0.29296875 C25.98899704 -0.30845261 26.68502533 -0.32393646 27.40214539 -0.33988953 C31.79922454 -0.34139844 34.55656542 0.2266743 38 3 C39.57739258 5.16064453 39.57739258 5.16064453 40.89453125 7.6328125 C41.37470703 8.52097656 41.85488281 9.40914062 42.34960938 10.32421875 C42.83236328 11.24847656 43.31511719 12.17273438 43.8125 13.125 C44.31458984 14.05699219 44.81667969 14.98898438 45.33398438 15.94921875 C49 22.80242347 49 22.80242347 49 24 C32.83 24 16.66 24 0 24 C0 16.08 0 8.16 0 0 Z " fill="#FDFDFD" transform="translate(267,219)"/>
<path d="M0 0 C3.50625 -0.0825 7.0125 -0.165 10.625 -0.25 C11.71893066 -0.28641602 12.81286133 -0.32283203 13.93994141 -0.36035156 C19.83292943 -0.42737876 23.38414991 -0.04796948 28 4 C28.60070312 4.48855469 29.20140625 4.97710937 29.8203125 5.48046875 C32.1716887 8.50922816 32.11433165 12.28422126 32 16 C30.66018595 19.61749795 29.1287767 22.65341748 26 25 C25.01 25 24.02 25 23 25 C23.6496875 25.92683594 24.299375 26.85367187 24.96875 27.80859375 C25.81262221 29.01814391 26.65636558 30.22778397 27.5 31.4375 C27.92925781 32.04916016 28.35851562 32.66082031 28.80078125 33.29101562 C32 37.88671875 32 37.88671875 32 39 C29.2265625 39.33984375 29.2265625 39.33984375 26 39 C24.0859375 36.62890625 24.0859375 36.62890625 22.375 33.5625 C19.49226741 29.14231941 19.49226741 29.14231941 14.8203125 27.046875 C11.13951767 26.72901585 11.13951767 26.72901585 6 27 C6 30.96 6 34.92 6 39 C4.02 39 2.04 39 0 39 C0 26.13 0 13.26 0 0 Z " fill="#0E0E0E" transform="translate(119,306)"/>
<path d="M0 0 C1.98 0 3.96 0 6 0 C6 13.86 6 27.72 6 42 C4.35 42 2.7 42 1 42 C1 40.68 1 39.36 1 38 C0.05125 38.66 -0.8975 39.32 -1.875 40 C-6.47886494 42.59083898 -10.83534003 43.10080092 -16 42 C-19.74249473 39.92924464 -22.19413543 37.29639084 -24.4375 33.6875 C-25.58050411 28.22648038 -25.87043481 23.77434789 -23.375 18.6875 C-20.37222432 15.28962226 -17.67399648 12.47597137 -13.046875 11.65234375 C-7.82998921 11.4233583 -6.16169279 12.4191536 -1 15 C-0.67 10.05 -0.34 5.1 0 0 Z " fill="#101010" transform="translate(197,303)"/>
<path d="M0 0 C0.76539093 -0.01022186 1.53078186 -0.02044373 2.31936646 -0.03097534 C4.82537968 -0.05855675 7.33027973 -0.05687051 9.83642578 -0.05224609 C11.59465943 -0.06003194 13.35288935 -0.06870372 15.1111145 -0.07821655 C18.7877423 -0.09309577 22.46398584 -0.09259207 26.140625 -0.08203125 C30.83030026 -0.0704498 35.51839361 -0.10430159 40.20780754 -0.1507206 C43.83693489 -0.18032164 47.46568678 -0.18192183 51.09491348 -0.17570114 C52.82273617 -0.17672136 54.55058161 -0.18707946 56.27828598 -0.20732498 C66.03147891 -0.30759788 74.12994138 -0.14878494 81.90673828 6.54931641 C84.16064453 8.96337891 84.16064453 8.96337891 85.46923828 11.17431641 C85.92427734 11.90908203 86.37931641 12.64384766 86.84814453 13.40087891 C89.04351475 17.85642731 89.09318369 22.19839376 89.14501953 27.09619141 C89.15309128 27.82622375 89.16116302 28.5562561 89.16947937 29.30841064 C89.18328156 30.85157932 89.19402093 32.39477802 89.2019043 33.93798828 C89.21340839 35.50513753 89.23383559 37.07224809 89.26342773 38.63916016 C89.5654585 54.64847803 89.5654585 54.64847803 84.90673828 61.54931641 C84.34986328 62.43619141 83.79298828 63.32306641 83.21923828 64.23681641 C77.3203945 70.13566019 70.5209472 72.61161285 62.29101562 72.61181641 C60.44154951 72.59279248 58.59210255 72.57184278 56.74267578 72.54931641 C54.71272778 72.54815751 52.68277703 72.54954134 50.65283203 72.55322266 C47.47252538 72.55762819 44.29516205 72.54953375 41.11523438 72.49804688 C26.60001118 71.89805618 26.60001118 71.89805618 14.07080078 78.11181641 C12.67200386 79.58079667 11.2804687 81.05686855 9.90673828 82.54931641 C9.24673828 82.54931641 8.58673828 82.54931641 7.90673828 82.54931641 C7.90673828 79.24931641 7.90673828 75.94931641 7.90673828 72.54931641 C7.08431641 72.59572266 6.26189453 72.64212891 5.41455078 72.68994141 C-4.65671348 73.0155712 -11.98255876 71.77111114 -19.53076172 64.79931641 C-25.90433549 58.46566063 -26.44599281 51.21018015 -26.5070343 42.69012451 C-26.50460327 41.22210986 -26.49696584 39.75409548 -26.484375 38.28613281 C-26.4682971 36.05422845 -26.48427521 33.82413433 -26.50341797 31.59228516 C-26.51662513 23.40933552 -26.47477125 16.30911211 -21.55029297 9.37744141 C-21.00759766 8.85666016 -20.46490234 8.33587891 -19.90576172 7.79931641 C-19.11105469 7.00267578 -19.11105469 7.00267578 -18.30029297 6.18994141 C-12.54173819 1.90924582 -7.23224992 -0.05093134 0 0 Z M-19.09326172 10.54931641 C-24.24131982 17.92648834 -24.88143053 25.23931855 -24.74511719 33.99902344 C-24.718284 36.04761549 -24.74497906 38.09073329 -24.77685547 40.13916016 C-24.79897633 48.17219299 -23.96663305 54.93650135 -19.09326172 61.54931641 C-12.60517053 67.66776426 -6.54515801 69.79836375 2.21923828 70.17431641 C2.95980469 70.21298828 3.70037109 70.25166016 4.46337891 70.29150391 C6.27745137 70.38513345 8.09205944 70.46828492 9.90673828 70.54931641 C10.40173828 74.01431641 10.40173828 74.01431641 10.90673828 77.54931641 C14.97644365 74.89829012 14.97644365 74.89829012 18.81600952 71.93466187 C21.3062597 70.28458805 22.64613981 70.18180683 25.60839844 70.19628906 C26.53681549 70.19263336 27.46523254 70.18897766 28.42178345 70.18521118 C29.41970917 70.19450653 30.41763489 70.20380188 31.44580078 70.21337891 C33.57471004 70.20085895 35.7036163 70.1878215 37.83251953 70.17431641 C41.17654164 70.17039897 44.52026463 70.17426597 47.86425781 70.18896484 C51.10021745 70.19759279 54.33494897 70.17574721 57.57080078 70.15087891 C58.55658112 70.16422272 59.54236145 70.17756653 60.55801392 70.1913147 C68.15138519 70.11147964 74.69041964 68.2131415 80.52627563 63.14199829 C87.18559316 55.72618895 87.4387492 47.75482936 87.40771484 38.32592773 C87.406745 36.25117949 87.44838127 34.18017059 87.49267578 32.10595703 C87.57234522 23.22986375 86.52767358 15.8097776 80.49902344 8.94677734 C74.85082459 3.80795017 68.87529556 2.17504104 61.44604492 2.16113281 C60.73610886 2.15587585 60.02617279 2.1506189 59.29472351 2.14520264 C56.96855077 2.13209452 54.64307317 2.14070843 52.31689453 2.15087891 C50.68696462 2.14885529 49.05703559 2.14594147 47.42710876 2.1421814 C44.01861919 2.1377703 40.61036625 2.1441489 37.2019043 2.15820312 C32.84984744 2.17528078 28.49834628 2.16545533 24.14630985 2.14748573 C20.78238297 2.13660327 17.41858605 2.14011484 14.05465508 2.14786911 C12.45080943 2.14985951 10.8469517 2.14745293 9.24312019 2.14043045 C-6.44373559 1.96793371 -6.44373559 1.96793371 -19.09326172 10.54931641 Z " fill="#000000" transform="translate(259.09326171875,130.45068359375)"/>
<path d="M0 0 C5 0 5 0 6.40625 1.32592773 C6.7671875 1.93895752 7.128125 2.5519873 7.5 3.18359375 C7.91008301 3.86035156 8.32016602 4.53710938 8.74267578 5.234375 C9.15759277 5.96140625 9.57250977 6.6884375 10 7.4375 C10.43425293 8.16582031 10.86850586 8.89414062 11.31591797 9.64453125 C12.56491995 11.75166555 13.787309 13.87180536 15 16 C15.58007812 17.01191406 16.16015625 18.02382813 16.7578125 19.06640625 C17.86174853 21.03141238 18.93567497 23.01325994 20 25 C20.66 25 21.32 25 22 25 C23.63584209 22.60090361 23.63584209 22.60090361 25.30078125 19.53125 C25.94853516 18.40332031 26.59628906 17.27539062 27.26367188 16.11328125 C28.29174624 14.30683933 29.31379656 12.4976685 30.32397461 10.68115234 C31.29960457 8.93428749 32.29988455 7.2012616 33.30078125 5.46875 C33.89028564 4.42138672 34.47979004 3.37402344 35.0871582 2.29492188 C35.718396 1.53759766 36.34963379 0.78027344 37 0 C38.65 0 40.3 0 42 0 C42 12.87 42 25.74 42 39 C40.35 39 38.7 39 37 39 C36.67 30.09 36.34 21.18 36 12 C31.88539489 19.23095581 31.88539489 19.23095581 27.80371094 26.48046875 C27.28583008 27.37378906 26.76794922 28.26710938 26.234375 29.1875 C25.44885254 30.57001953 25.44885254 30.57001953 24.64746094 31.98046875 C24.10379883 32.64691406 23.56013672 33.31335938 23 34 C21.68 34 20.36 34 19 34 C17.44433594 32.1640625 17.44433594 32.1640625 15.984375 29.625 C15.50709961 28.81289063 15.02982422 28.00078125 14.53808594 27.1640625 C13.6529834 25.59785156 13.6529834 25.59785156 12.75 24 C9.90375 19.05 9.90375 19.05 7 14 C6.67 22.25 6.34 30.5 6 39 C4.02 39 2.04 39 0 39 C0 26.13 0 13.26 0 0 Z " fill="#0C0C0C" transform="translate(248,306)"/>
<path d="M0 0 C5.42936177 2.51359341 7.62367615 5.69896986 10 11 C10 12.98 10 14.96 10 17 C2.08 17 -5.84 17 -14 17 C-11.83333333 22.83333333 -11.83333333 22.83333333 -9 24 C-3.95624681 24.30351789 1.09260374 24.308639 6 23 C6.66 23.99 7.32 24.98 8 26 C2.3531333 30.47854945 -2.97202468 30.71488001 -10 30 C-14.85857844 27.70321747 -17.63468979 24.82159389 -20 20 C-20.82409214 15.3918113 -20.51609334 11.37972477 -18.375 7.1875 C-13.31196817 0.39237833 -8.20428396 -1.29611652 0 0 Z " fill="#111111" transform="translate(375,315)"/>
<path d="M0 0 C5.42936177 2.51359341 7.62367615 5.69896986 10 11 C10 12.98 10 14.96 10 17 C2.08 17 -5.84 17 -14 17 C-11.83333333 22.83333333 -11.83333333 22.83333333 -9 24 C-3.95624681 24.30351789 1.09260374 24.308639 6 23 C6.66 23.99 7.32 24.98 8 26 C2.3531333 30.47854945 -2.97202468 30.71488001 -10 30 C-14.85857844 27.70321747 -17.63468979 24.82159389 -20 20 C-20.82409214 15.3918113 -20.51609334 11.37972477 -18.375 7.1875 C-13.31196817 0.39237833 -8.20428396 -1.29611652 0 0 Z " fill="#111111" transform="translate(230,315)"/>
<path d="M0 0 C3.74030185 1.60298651 4.73158465 2.59737698 7 6 C7.22705078 8.54370117 7.22705078 8.54370117 7.1953125 11.54296875 C7.18886719 12.61611328 7.18242187 13.68925781 7.17578125 14.79492188 C7.15902344 15.91447266 7.14226562 17.03402344 7.125 18.1875 C7.11597656 19.31865234 7.10695313 20.44980469 7.09765625 21.61523438 C7.07406862 24.41036828 7.041153 27.20507845 7 30 C5.35 30 3.7 30 2 30 C1.67 29.34 1.34 28.68 1 28 C0.44183594 28.32097656 -0.11632812 28.64195312 -0.69140625 28.97265625 C-4.69930336 30.75620437 -8.70835981 30.66558555 -13 30 C-16.125 27.9375 -16.125 27.9375 -18 25 C-18.625 21.5 -18.625 21.5 -18 18 C-15.94921875 15.30078125 -15.94921875 15.30078125 -13 13 C-10.1612599 12.63228755 -7.98179849 12.51369196 -5.1875 12.6875 C-4.49462891 12.71005859 -3.80175781 12.73261719 -3.08789062 12.75585938 C-1.39098427 12.81437339 0.30479861 12.9040452 2 13 C1.39816251 10.97954558 0.72693904 8.97888961 0 7 C-4.65244014 4.67377993 -11.0737581 6.01475162 -16 7 C-16.33 5.68 -16.66 4.36 -17 3 C-11.51727099 -0.55636477 -6.329836 -0.72368552 0 0 Z " fill="#0C0C0C" transform="translate(317,315)"/>
<path d="M0 0 C4.26773525 0.8549962 6.41295804 2.35881214 9.11328125 5.7109375 C11.12628799 10.37263731 10.83838762 13.98959375 9.11328125 18.7109375 C7.01329367 21.89712556 5.85527275 23.07004952 2.30078125 24.4609375 C-1.77154568 25.21875774 -5.15971282 25.37090569 -8.80078125 23.21875 C-12.86496347 19.85701903 -14.36169507 17.61265095 -15.19921875 12.2734375 C-14.58314157 7.57584899 -13.13065125 5.39359842 -9.90234375 2.0078125 C-6.59884335 -0.31166651 -3.94314048 -0.34704423 0 0 Z " fill="#FAFAFA" transform="translate(308.69921875,267.5390625)"/>
<path d="M0 0 C3.39488422 2.05107588 4.80323081 3.70484621 7 7 C7.70351326 11.82642815 7.73487541 15.7836545 5.1875 20 C0.87522351 23.94265279 -1.83190947 24.48543347 -7.484375 24.39453125 C-11.5514375 23.75668449 -13.23237372 21.9805206 -16 19 C-17.86233425 15.27533151 -17.57130829 11.05504687 -17 7 C-13.12557837 -0.24285536 -7.55978674 -0.88098302 0 0 Z " fill="#FAFAFA" transform="translate(205,268)"/>
<path d="M0 0 C1.47726562 -0.02900391 1.47726562 -0.02900391 2.984375 -0.05859375 C7.49443731 -0.02812036 10.2718718 0.18776615 14.1875 2.5390625 C16 5.625 16 5.625 16 15.625 C5.44 15.625 -5.12 15.625 -16 15.625 C-16 5.625 -16 5.625 -14.1875 2.5390625 C-9.4942714 -0.27917526 -5.37579121 -0.10554564 0 0 Z " fill="#F8F8F8" transform="translate(290,170.375)"/>
<path d="M0 0 C2.12472576 -0.05386629 4.24983652 -0.09273071 6.375 -0.125 C7.55835938 -0.14820313 8.74171875 -0.17140625 9.9609375 -0.1953125 C13 0 13 0 15 2 C15.22705078 4.98095703 15.22705078 4.98095703 15.1953125 8.7578125 C15.1924826 9.42086395 15.18965271 10.08391541 15.18673706 10.76705933 C15.17553435 12.88655583 15.15043051 15.00563104 15.125 17.125 C15.11497028 18.56119182 15.10584441 19.99739025 15.09765625 21.43359375 C15.075595 24.95586628 15.04106494 28.47789203 15 32 C11.37 32 7.74 32 4 32 C3.25130208 29.42838542 2.50260417 26.85677083 1.75390625 24.28515625 C1.20973949 22.0597507 1.20973949 22.0597507 0 21 C-0.08685603 19.43827255 -0.10702219 17.87270656 -0.09765625 16.30859375 C-0.09443359 15.36435547 -0.09121094 14.42011719 -0.08789062 13.44726562 C-0.07951172 12.45404297 -0.07113281 11.46082031 -0.0625 10.4375 C-0.05798828 9.44041016 -0.05347656 8.44332031 -0.04882812 7.41601562 C-0.03700007 4.94395151 -0.02051849 2.47200482 0 0 Z " fill="#FEFEFE" transform="translate(321,249)"/>
<path d="M0 0 C3.18500291 1.62145603 5.22111096 2.97328264 7.375 5.8125 C8.74302563 10.60058971 8.58540192 13.93012753 6.1875 18.3125 C3.90764489 21.11346485 2.33222077 22.78548988 -1.3046875 23.37109375 C-8.26542605 23.55093046 -8.26542605 23.55093046 -12 20.75 C-12.66 19.8425 -13.32 18.935 -14 18 C-14.45375 17.401875 -14.9075 16.80375 -15.375 16.1875 C-16.39237832 12.62667589 -16.11608502 9.4678356 -15 6 C-11.45402423 -0.00283041 -6.66595883 -1.40712548 0 0 Z " fill="#F7F7F7" transform="translate(293,143)"/>
<path d="M0 0 C3.08290327 0.09528974 4.29983163 0.43475087 7.125 1.9375 C9.84111118 5.14744958 10.1875 7.19544153 10.1875 11.375 C9.05099056 13.75133793 8.04308971 15.51941029 6.1875 17.375 C6.74179687 17.70113281 7.29609375 18.02726562 7.8671875 18.36328125 C8.59164063 18.80027344 9.31609375 19.23726562 10.0625 19.6875 C10.78179687 20.11675781 11.50109375 20.54601562 12.2421875 20.98828125 C14.1875 22.375 14.1875 22.375 16.1875 25.375 C16.45152861 28.72816337 16.27501723 32.00558658 16.1875 35.375 C9.9175 35.375 3.6475 35.375 -2.8125 35.375 C-2.8125 34.385 -2.8125 33.395 -2.8125 32.375 C2.4675 32.375 7.7475 32.375 13.1875 32.375 C12.95416667 25.74166667 12.95416667 25.74166667 10.1875 23.375 C8.25492145 23.00668919 8.25492145 23.00668919 6.0546875 22.9609375 C5.24902344 22.92226562 4.44335938 22.88359375 3.61328125 22.84375 C2.77152344 22.8128125 1.92976563 22.781875 1.0625 22.75 C0.21300781 22.71132812 -0.63648438 22.67265625 -1.51171875 22.6328125 C-3.61161684 22.53843506 -5.71202891 22.45562414 -7.8125 22.375 C-7.4375 20.4375 -7.4375 20.4375 -6.8125 18.375 C-6.1525 18.045 -5.4925 17.715 -4.8125 17.375 C-5.5240625 16.8490625 -5.5240625 16.8490625 -6.25 16.3125 C-8.58351487 13.41894157 -8.68606532 11.0416057 -8.8125 7.375 C-6.66657358 2.77658625 -5.19399704 0.51088496 0 0 Z " fill="#161616" transform="translate(313.8125,147.625)"/>
<path d="M0 0 C4.37758112 2.34513274 4.37758112 2.34513274 6 5 C7.14033924 10.00436645 6.76661537 13.72230772 4.125 18.125 C-0.23796013 20.74277608 -4.03206383 21.07414836 -9 20 C-12.12476363 17.10387761 -13.83118019 14.48561434 -14.3125 10.25 C-13.92220973 6.19098115 -12.50412622 4.16698316 -10 1 C-6.75287417 -0.62356291 -3.50888646 -0.54582678 0 0 Z " fill="#F8F8F8" transform="translate(191,320)"/>
<path d="M0 0 C2.206875 -0.061875 4.41375 -0.12375 6.6875 -0.1875 C8.54955078 -0.23970703 8.54955078 -0.23970703 10.44921875 -0.29296875 C14.21666932 0.01787701 16.02794917 0.7227143 19 3 C20.21076369 5.42152738 20.07767714 6.75423087 19.875 9.4375 C19.83117187 10.21996094 19.78734375 11.00242187 19.7421875 11.80859375 C19 14 19 14 16.90234375 15.7734375 C13.30693048 17.29289883 10.57762823 17.29656902 6.6875 17.1875 C3.3771875 17.0946875 3.3771875 17.0946875 0 17 C0 11.39 0 5.78 0 0 Z " fill="#FCFCFC" transform="translate(125,311)"/>
<path d="M0 0 C1.98 0 3.96 0 6 0 C6 1.98 6 3.96 6 6 C8.64 6 11.28 6 14 6 C14 7.65 14 9.3 14 11 C11.36 11 8.72 11 6 11 C6.13822199 14.14621682 6.28685084 17.29185566 6.4375 20.4375 C6.49647461 21.78424805 6.49647461 21.78424805 6.55664062 23.15820312 C6.61948242 24.43920898 6.61948242 24.43920898 6.68359375 25.74609375 C6.72025146 26.53685303 6.75690918 27.3276123 6.79467773 28.14233398 C6.80563257 30.01401441 6.80563257 30.01401441 8 31 C10.33297433 31.04092937 12.66705225 31.04241723 15 31 C15.33 32.32 15.66 33.64 16 35 C13.74015891 36.12992055 12.20273513 36.29799956 9.6875 36.4375 C8.92824219 36.49808594 8.16898437 36.55867188 7.38671875 36.62109375 C4.39021462 35.84131608 2.83222994 34.38503977 0.97045898 31.94067383 C-0.91437365 28.17148274 -0.51399471 24.24169196 -0.3125 20.125 C-0.27866211 18.80628906 -0.27866211 18.80628906 -0.24414062 17.4609375 C-0.18559748 15.30654993 -0.09592783 13.1530469 0 11 C-1.65 11 -3.3 11 -5 11 C-5 9.35 -5 7.7 -5 6 C-3.35 6 -1.7 6 0 6 C0 4.02 0 2.04 0 0 Z " fill="#171717" transform="translate(335,309)"/>
<path d="M0 0 C1 3 1 3 0.13671875 5.05078125 C-4.07675222 11.62652166 -9.33987827 16.40648647 -17.01879883 18.56835938 C-21.40566767 19.20352309 -25.73887571 19.05389962 -30.1640625 19 C-32.1940105 18.99884111 -34.22396125 19.00022494 -36.25390625 19.00390625 C-39.4342129 19.00831178 -42.61157623 19.00021735 -45.79150391 18.94873047 C-60.3067271 18.34873978 -60.3067271 18.34873978 -72.8359375 24.5625 C-74.23473443 26.03148027 -75.62626959 27.50755214 -77 29 C-77.66 29 -78.32 29 -79 29 C-79 25.7 -79 22.4 -79 19 C-83.29 19 -87.58 19 -92 19 C-92 18.67 -92 18.34 -92 18 C-86.72 17.67 -81.44 17.34 -76 17 C-75.67 18.98 -75.34 20.96 -75 23 C-74.47824692 22.50311676 -73.95649384 22.00623352 -73.41893005 21.49429321 C-67.27102292 16.12072779 -63.00960435 15.02590598 -54.97265625 15.2734375 C-53.94369736 15.27300446 -52.91473846 15.27257141 -51.854599 15.27212524 C-48.58938685 15.27345599 -45.32721544 15.31993193 -42.0625 15.375 C-38.80167406 15.41946032 -35.54225273 15.45308338 -32.28111267 15.45645142 C-30.26071275 15.45935555 -28.240157 15.48549246 -26.22047424 15.53939819 C-19.15367789 15.56179134 -13.93786965 13.8661664 -8 10 C-5.6922941 7.63460145 -4.33808457 5.67616914 -2.875 2.75 C-2 1 -2 1 0 0 Z " fill="#262626" transform="translate(346,184)"/>
<path d="M0 0 C3.75 0.375 3.75 0.375 6.6875 2.3125 C9.44990204 6.41424848 9.68339724 9.56441423 8.75 14.375 C7.3125 16.9375 7.3125 16.9375 4.75 18.375 C0.46133615 19.12256526 -2.9724825 19.1415105 -6.75 16.875 C-8.80378227 13.45202955 -9.75098202 10.38285616 -9.25 6.375 C-6.875 3.4375 -6.875 3.4375 -4.25 1.375 C-3.25 0.375 -3.25 0.375 0 0 Z " fill="#090909" transform="translate(265.25,147.625)"/>
<path d="M0 0 C0.98935547 -0.01611328 1.97871094 -0.03222656 2.99804688 -0.04882812 C12.31339359 -0.05509265 12.31339359 -0.05509265 16.0625 3.3125 C19.0625 8.3125 19.0625 8.3125 19.0625 20.3125 C6.5225 20.3125 -6.0175 20.3125 -18.9375 20.3125 C-18.9375 6.53472222 -18.9375 6.53472222 -14.9375 2.3125 C-10.24684584 -0.58867054 -5.3497715 -0.01735812 0 0 Z M-14.125 5.2265625 C-16.78157936 9.1531429 -16.78157936 9.1531429 -15.9375 18.3125 C-5.3775 18.3125 5.1825 18.3125 16.0625 18.3125 C16.90657936 9.1531429 16.90657936 9.1531429 14.25 5.2265625 C9.5567714 2.40832474 5.43829121 2.58195436 0.0625 2.6875 C-0.92234375 2.66816406 -1.9071875 2.64882812 -2.921875 2.62890625 C-7.43193731 2.65937964 -10.2093718 2.87526615 -14.125 5.2265625 Z " fill="#0B0B0B" transform="translate(289.9375,167.6875)"/>
<path d="M0 0 C0 0.66 0 1.32 0 2 C-1.216875 2.4125 -2.43375 2.825 -3.6875 3.25 C-10.51965606 5.88422919 -13.74722809 9.36905677 -16.92407227 15.89038086 C-18.7964371 21.30184236 -18.73996809 26.78745465 -18.65185547 32.44970703 C-18.62502228 34.49829909 -18.65171734 36.54141688 -18.68359375 38.58984375 C-18.70649371 46.68338884 -17.83901531 53.31364057 -13 60 C-10.8033169 62.28560125 -10.8033169 62.28560125 -8.375 63.5625 C-7.61960938 64.01753906 -6.86421875 64.47257812 -6.0859375 64.94140625 C-1.74853492 67.14259745 2.42538375 67.30879774 7.1875 67.5625 C8.31188477 67.62727539 8.31188477 67.62727539 9.45898438 67.69335938 C11.30578375 67.79922685 13.15286834 67.9000976 15 68 C14.67 68.66 14.34 69.32 14 70 C-5.0762141 70.91712568 -5.0762141 70.91712568 -10.39453125 66.62109375 C-11.18923828 65.81865234 -11.18923828 65.81865234 -12 65 C-12.64324219 64.37222656 -13.28648437 63.74445313 -13.94921875 63.09765625 C-21.41777568 55.20492164 -21.34624812 47.30107305 -21.31567383 36.88769531 C-21.31251848 34.6381766 -21.33599089 32.38998113 -21.36132812 30.140625 C-21.39888094 21.91124317 -21.41280208 14.80384292 -16.45703125 7.828125 C-6.15982854 -2.05327618 -6.15982854 -2.05327618 0 0 Z " fill="#0A0A0A" transform="translate(254,132)"/>
<path d="M0 0 C3.18500291 1.62145603 5.22111096 2.97328264 7.375 5.8125 C8.74302563 10.60058971 8.58540192 13.93012753 6.1875 18.3125 C3.90764489 21.11346485 2.33222077 22.78548988 -1.3046875 23.37109375 C-8.26542605 23.55093046 -8.26542605 23.55093046 -12 20.75 C-12.66 19.8425 -13.32 18.935 -14 18 C-14.45375 17.401875 -14.9075 16.80375 -15.375 16.1875 C-16.39237832 12.62667589 -16.11608502 9.4678356 -15 6 C-11.45402423 -0.00283041 -6.66595883 -1.40712548 0 0 Z M-11 6 C-13.33984442 8.87648225 -13.33984442 8.87648225 -12.875 12.4375 C-11.90531504 16.38550307 -11.4116418 17.81305013 -8 20 C-3.0301078 20.7099846 -1.15080314 20.79117716 3 17.9375 C5.52975133 14.22192774 5.7878128 12.4117517 5 8 C2.54597925 4.6076772 1.16402963 3.19400494 -3 2.5 C-6.35711455 3.05951909 -8.28615908 3.96461931 -11 6 Z " fill="#1B1B1B" transform="translate(293,143)"/>
<path d="M0 0 C2.37625177 -0.10883596 4.74743976 -0.18766696 7.125 -0.25 C7.79015625 -0.28351563 8.4553125 -0.31703125 9.140625 -0.3515625 C14.28175552 -0.45236898 17.06679432 0.75539709 21 4 C23.92332269 8.38498404 23.1356502 11.7774672 23 17 C16.73 17 10.46 17 4 17 C4 16.01 4 15.02 4 14 C9.28 14 14.56 14 20 14 C19.76666667 7.36666667 19.76666667 7.36666667 17 5 C15.06742145 4.63168919 15.06742145 4.63168919 12.8671875 4.5859375 C11.65869141 4.52792969 11.65869141 4.52792969 10.42578125 4.46875 C9.58402344 4.4378125 8.74226563 4.406875 7.875 4.375 C7.02550781 4.33632812 6.17601562 4.29765625 5.30078125 4.2578125 C3.20088316 4.16343506 1.10047109 4.08062414 -1 4 C-0.67 2.68 -0.34 1.36 0 0 Z " fill="#2C2C2C" transform="translate(307,166)"/>
<path d="M0 0 C1.65 0 3.3 0 5 0 C5 9.9 5 19.8 5 30 C3.35 30 1.7 30 0 30 C0 20.1 0 10.2 0 0 Z " fill="#020202" transform="translate(159,315)"/>
<path d="M0 0 C8.01449397 2.15023009 12.83889616 5.98557139 17.0546875 13.03515625 C19.21825995 17.53216842 19.13271784 21.91621826 19.09765625 26.828125 C19.0962413 27.57713074 19.09482635 28.32613647 19.09336853 29.09783936 C19.08778659 31.48193412 19.07523745 33.86593378 19.0625 36.25 C19.05748266 37.86979031 19.05292016 39.48958209 19.04882812 41.109375 C19.03782308 45.07295312 19.02057091 49.03646045 19 53 C17.515 53.495 17.515 53.495 16 54 C16.02618408 53.02240723 16.05236816 52.04481445 16.0793457 51.03759766 C16.17071937 47.36628648 16.22756037 43.69507295 16.2746582 40.02294922 C16.29960626 38.44204741 16.33357805 36.86125858 16.37719727 35.28076172 C16.62988554 25.88075795 16.79031583 17.95375416 11 10 C7.49237351 6.40006755 3.61053399 4.80805254 -1 3 C-0.67 2.01 -0.34 1.02 0 0 Z " fill="#030303" transform="translate(329,131)"/>
<path d="M0 0 C0.78955078 -0.01224609 1.57910156 -0.02449219 2.39257812 -0.03710938 C4.45057435 -0.04237279 6.50812009 0.06543715 8.5625 0.1875 C9.2225 0.8475 9.8825 1.5075 10.5625 2.1875 C8.29908529 4.45091471 2.0476747 3.54262798 -1.1796875 3.6171875 C-1.9325 3.648125 -2.6853125 3.6790625 -3.4609375 3.7109375 C-4.49613525 3.7406665 -4.49613525 3.7406665 -5.55224609 3.77099609 C-8.13909596 4.34250164 -8.92797765 4.99585979 -10.4375 7.1875 C-10.7675 9.4975 -11.0975 11.8075 -11.4375 14.1875 C-6.1575 14.1875 -0.8775 14.1875 4.5625 14.1875 C4.5625 14.8475 4.5625 15.5075 4.5625 16.1875 C-1.7075 16.1875 -7.9775 16.1875 -14.4375 16.1875 C-15.05264196 6.96037066 -15.05264196 6.96037066 -12 3.125 C-11.154375 2.485625 -10.30875 1.84625 -9.4375 1.1875 C-7.33618615 -0.91381385 -2.89603678 0.00235259 0 0 Z " fill="#131313" transform="translate(264.4375,166.8125)"/>
<path d="M0 0 C3.4375 0.8125 3.4375 0.8125 5.4375 3.8125 C5.875 6.25 5.875 6.25 5.4375 8.8125 C3.25 11.1875 3.25 11.1875 0.4375 12.8125 C-2.44006134 12.74398663 -3.989777 12.1561338 -6.4375 10.6875 C-7.5625 8.8125 -7.5625 8.8125 -7.4375 5.25 C-6.21869651 0.46184342 -4.88800931 -0.25726365 0 0 Z " fill="#EEEEEE" transform="translate(266.5625,151.1875)"/>
<path d="M0 0 C3.5625 0.375 3.5625 0.375 5.5625 2 C6.90430884 5.18679601 6.49197204 7.08609893 5.5625 10.375 C3.5625 12.375 3.5625 12.375 0.125 12.75 C-3.4375 12.375 -3.4375 12.375 -5.4375 10.75 C-6.77930884 7.56320399 -6.36697204 5.66390107 -5.4375 2.375 C-3.4375 0.375 -3.4375 0.375 0 0 Z " fill="#F3F3F3" transform="translate(314.4375,150.625)"/>
<path d="M0 0 C3.0625 1.75 3.0625 1.75 5 4 C5 5.32 5 6.64 5 8 C-0.94 8 -6.88 8 -13 8 C-11.34996023 -0.25019886 -7.89286897 -1.2578828 0 0 Z " fill="#F9F9F9" transform="translate(374,320)"/>
<path d="M0 0 C3.0625 1.75 3.0625 1.75 5 4 C5 5.32 5 6.64 5 8 C-0.94 8 -6.88 8 -13 8 C-11.34996023 -0.25019886 -7.89286897 -1.2578828 0 0 Z " fill="#F9F9F9" transform="translate(229,320)"/>
<path d="M0 0 C1.77503906 0.03480469 1.77503906 0.03480469 3.5859375 0.0703125 C5.36871094 0.09738281 5.36871094 0.09738281 7.1875 0.125 C8.10273438 0.14820313 9.01796875 0.17140625 9.9609375 0.1953125 C10.2109375 4.90625 10.2109375 4.90625 7.9609375 7.5078125 C3.89296995 9.79604425 1.58597673 9.65023439 -3.0390625 9.1953125 C-5.0390625 7.1953125 -5.0390625 7.1953125 -5.2890625 4.6953125 C-4.90234402 0.82812773 -3.80133525 0.24430175 0 0 Z " fill="#F8F8F8" transform="translate(309.0390625,331.8046875)"/>
<path d="M0 0 C3.08193978 1.6281946 5.26420667 3.03009062 7.375 5.8125 C8.2748974 8.96214092 8.24092773 11.74747562 8 15 C6 17 6 17 3 18 C3.33 17.01 3.66 16.02 4 15 C4.13156527 11.31617231 4.16982138 8.50946415 3 5 C2.39671875 4.93941406 1.7934375 4.87882813 1.171875 4.81640625 C0.37265625 4.73261719 -0.4265625 4.64882812 -1.25 4.5625 C-2.43335938 4.44068359 -2.43335938 4.44068359 -3.640625 4.31640625 C-5.82364639 4.02365007 -7.8773182 3.57935581 -10 3 C-7.28376229 -0.83468854 -4.42055341 -0.52447244 0 0 Z " fill="#131313" transform="translate(293,143)"/>
<path d="M0 0 C0.33 1.98 0.66 3.96 1 6 C3.31 4.02 5.62 2.04 8 0 C8.66 0.33 9.32 0.66 10 1 C7.60254015 6.09460217 3.70219304 9.09482341 -1 12 C-1.66 12 -2.32 12 -3 12 C-3 8.7 -3 5.4 -3 2 C-7.29 2 -11.58 2 -16 2 C-16 1.67 -16 1.34 -16 1 C-13.70839646 0.83246763 -11.41671509 0.66599948 -9.125 0.5 C-7.84882813 0.4071875 -6.57265625 0.314375 -5.2578125 0.21875 C-3.50763316 0.10123196 -1.75412035 0 0 0 Z " fill="#101010" transform="translate(270,201)"/>
<path d="M0 0 C0.66 0 1.32 0 2 0 C2 2.31 2 4.62 2 7 C-4.27 7 -10.54 7 -17 7 C-17 6.01 -17 5.02 -17 4 C-11.39 4 -5.78 4 0 4 C0 2.68 0 1.36 0 0 Z " fill="#000000" transform="translate(328,176)"/>
<path d="M0 0 C0 0.66 0 1.32 0 2 C-1.216875 2.4125 -2.43375 2.825 -3.6875 3.25 C-10.62201321 5.89171932 -13.65994316 9.56729794 -17 16 C-17.99 16 -18.98 16 -20 16 C-18.53625373 9.33182255 -14.48703305 5.23527759 -8.8671875 1.6328125 C-3.5832153 -1.1944051 -3.5832153 -1.1944051 0 0 Z " fill="#191919" transform="translate(254,132)"/>
<path d="M0 0 C8.14117993 2.18421901 12.90507761 6.12923622 17.25 13.23046875 C17.4975 13.81441406 17.745 14.39835938 18 15 C17.67 15.66 17.34 16.32 17 17 C16.34 17 15.68 17 15 17 C14.11895312 15.63378203 13.29557397 14.23019432 12.5 12.8125 C9.06241101 7.3910288 4.8559915 5.30304804 -1 3 C-0.67 2.01 -0.34 1.02 0 0 Z " fill="#1F1F1F" transform="translate(329,131)"/>
<path d="M0 0 C1 3 1 3 0.13671875 5.05078125 C-3.77604998 11.15723164 -8.22609014 15.19784304 -15 18 C-15.66 17.67 -16.32 17.34 -17 17 C-14.8027939 14.63377805 -12.85294351 12.91239188 -10.0625 11.25 C-6.63485229 8.73172821 -5.11538011 6.3672996 -3.078125 2.70703125 C-2 1 -2 1 0 0 Z " fill="#181818" transform="translate(346,184)"/>
<path d="M0 0 C0.33 0 0.66 0 1 0 C1 2.64 1 5.28 1 8 C6.28 8 11.56 8 17 8 C17 8.66 17 9.32 17 10 C10.73 10 4.46 10 -2 10 C-2 2 -2 2 0 0 Z " fill="#020202" transform="translate(252,173)"/>
<path d="M0 0 C1.2065625 0.0309375 1.2065625 0.0309375 2.4375 0.0625 C2.81968767 1.71864657 3.15145102 3.38707024 3.4375 5.0625 C2.4375 6.0625 2.4375 6.0625 -0.125 6.125 C-1.3315625 6.0940625 -1.3315625 6.0940625 -2.5625 6.0625 C-2.94468767 4.40635343 -3.27645102 2.73792976 -3.5625 1.0625 C-2.5625 0.0625 -2.5625 0.0625 0 0 Z " fill="#0A0A0A" transform="translate(161.5625,302.9375)"/>
<path d="M0 0 C0.66 0.33 1.32 0.66 2 1 C1.67 1.99 1.34 2.98 1 4 C0.34 4 -0.32 4 -1 4 C-1.66 8.29 -2.32 12.58 -3 17 C-3.33 17 -3.66 17 -4 17 C-4.22786458 14.98177083 -4.45572917 12.96354167 -4.68359375 10.9453125 C-4.91292961 8.92595684 -4.91292961 8.92595684 -6 7 C-2.25 1.125 -2.25 1.125 0 0 Z " fill="#232323" transform="translate(277,169)"/>
<path d="M0 0 C1.134375 0.020625 2.26875 0.04125 3.4375 0.0625 C3.4375 0.3925 3.4375 0.7225 3.4375 1.0625 C1.4575 1.3925 -0.5225 1.7225 -2.5625 2.0625 C-2.5625 2.7225 -2.5625 3.3825 -2.5625 4.0625 C-3.89031878 5.0698108 -5.22459359 6.06862666 -6.5625 7.0625 C-7.60365841 8.36394802 -8.61627841 9.69047869 -9.5625 11.0625 C-9.875 8.875 -9.875 8.875 -9.5625 6.0625 C-7.125 3.3125 -7.125 3.3125 -4.5625 1.0625 C-3.5625 0.0625 -3.5625 0.0625 0 0 Z " fill="#333333" transform="translate(265.5625,147.9375)"/>
<path d="M0 0 C0 2.64 0 5.28 0 8 C-3 4.25 -3 4.25 -3 2 C-7.29 2 -11.58 2 -16 2 C-16 1.67 -16 1.34 -16 1 C-13.70839646 0.83246763 -11.41671509 0.66599948 -9.125 0.5 C-7.84882813 0.4071875 -6.57265625 0.314375 -5.2578125 0.21875 C-3.50763316 0.10123196 -1.75412035 0 0 0 Z " fill="#5A5A5A" transform="translate(270,201)"/>
<path d="M0 0 C0.66 0.33 1.32 0.66 2 1 C0.85271902 4.44184294 -0.03284654 5.08007717 -3 7 C-3.99 7.33 -4.98 7.66 -6 8 C-4.73058503 4.08597051 -3.48832306 2.20927127 0 0 Z " fill="#272727" transform="translate(256,167)"/>
</svg>
